<svg width="1253" height="193" viewBox="0 0 1253 193" fill="none" xmlns="http://www.w3.org/2000/svg">
<mask id="mask0_836_23" style="mask-type:luminance" maskUnits="userSpaceOnUse" x="0" y="0" width="1253" height="193">
<path d="M1252.62 0H0V192.97H1252.62V0Z" fill="white"/>
</mask>
<g mask="url(#mask0_836_23)">
<path d="M879.83 37.4H857.13C854.21 37.4 854.2 37.4 854.2 40.27C854.2 60.0366 854.2 79.81 854.2 99.59C854.224 103.134 853.946 106.673 853.37 110.17C851.49 121.17 845.48 127.66 835.22 129.72C828.985 130.975 822.568 131.036 816.31 129.9C805.46 127.96 799.45 122.03 797.31 111.28C796.591 107.181 796.28 103.021 796.38 98.86C796.38 79.2266 796.38 59.5933 796.38 39.96C796.38 38.05 795.9 37.33 793.87 37.36C786.03 37.46 778.19 37.46 770.35 37.36C768.35 37.36 767.8 37.88 767.81 39.87C767.88 60.19 767.86 80.51 767.86 100.87C767.853 105.508 768.268 110.137 769.1 114.7C772.81 134.87 784.34 147.95 804.36 153C817.979 156.446 832.238 156.474 845.87 153.08C857.87 150.16 867.73 144.02 874.4 133.37C879.5 125.06 882.264 115.529 882.4 105.78C882.71 94.95 882.47 84.1 882.47 73.26H882.59V40.09C882.58 37.41 882.53 37.4 879.83 37.4Z" fill="#A4A6A9"/>
<path d="M1006.53 37.4H983.83C980.91 37.4 980.9 37.4 980.9 40.27C980.9 60.0366 980.9 79.81 980.9 99.59C980.921 103.134 980.64 106.674 980.06 110.17C978.18 121.17 972.18 127.66 961.92 129.72C955.685 130.975 949.268 131.036 943.01 129.9C932.15 127.96 926.15 122.03 924.01 111.28C923.291 107.181 922.98 103.021 923.08 98.86C923.08 79.2266 923.08 59.5933 923.08 39.96C923.08 38.05 922.6 37.33 920.57 37.36C912.73 37.46 904.89 37.46 897.05 37.36C895.05 37.36 894.5 37.88 894.51 39.87C894.58 60.19 894.51 80.51 894.51 100.87C894.503 105.508 894.918 110.137 895.75 114.7C899.46 134.87 910.99 147.95 931.01 153C944.629 156.446 958.888 156.474 972.52 153.08C984.52 150.16 994.38 144.02 1001.05 133.37C1006.15 125.06 1008.91 115.529 1009.05 105.78C1009.36 94.95 1009.12 84.1 1009.12 73.26H1009.24V40.09C1009.23 37.41 1009.22 37.4 1006.53 37.4Z" fill="#A4A6A9"/>
<path d="M364.19 132.19C358.74 127.13 353.39 121.97 348.04 116.81C347.16 115.96 346.67 116.08 345.96 116.99C343.513 120.112 340.496 122.741 337.07 124.74C324.31 132.22 310.83 132.93 297.07 128.36C287.86 125.36 282.07 118.69 279.5 109.36C277.28 101.36 277.26 92.9103 279.44 84.9C282.233 74.4933 288.783 67.6033 299.09 64.23C303.256 62.9089 307.59 62.1949 311.96 62.11C325.28 61.74 336.84 65.59 345.32 76.47C346.21 77.61 346.71 77.47 347.66 76.58C352.91 71.42 358.16 66.26 363.52 61.21C364.96 59.86 364.96 59.02 363.64 57.6C356.64 49.8765 347.706 44.16 337.76 41.04C325 37.09 312 36.8 298.91 38.9C287.17 40.78 276.46 45.12 267.49 53.12C254.41 64.8 249.33 79.9 249.09 96.99C249.047 100.745 249.342 104.497 249.97 108.2C252.97 126.27 262.03 140.27 278.8 148.1C299.28 157.65 320.39 158.29 341.56 150.1C350.027 146.744 357.663 141.589 363.94 134.99C364.75 134.12 365.53 133.48 364.19 132.19Z" fill="#A4A6A9"/>
<path d="M455.37 40.95C441.021 36.4095 425.653 36.1904 411.18 40.32C392.29 45.53 379.57 57.57 373.69 76.32C369.425 89.7685 369.369 104.199 373.53 117.68C378.37 133.79 388.8 144.94 404.53 151.08C419.176 156.077 434.892 157.068 450.05 153.95C470.71 149.17 484.97 137.26 491.17 116.62C494.353 105.835 494.827 94.4318 492.55 83.42C488.33 62.16 476.25 47.54 455.37 40.95ZM463.95 109.74C461.07 120.74 454.15 127.6 443.08 130.13C435.943 131.8 428.517 131.8 421.38 130.13C409.79 127.38 402.81 119.98 400.23 108.48C398.459 100.666 398.541 92.5463 400.47 84.77C403.7 71.48 413.21 63.48 426.83 62.32C431.649 61.8169 436.516 62.0122 441.28 62.9C454.43 65.57 462.55 74.38 464.72 88.22C465.18 91.22 465.31 94.22 465.48 97.05C465.429 101.323 464.916 105.578 463.95 109.74Z" fill="#A4A6A9"/>
<path d="M1110.53 97.72C1103.23 90.85 1094.53 87.78 1087.82 85.88C1084.35 84.88 1080.88 83.95 1077.34 82.98H1077.16C1072.7 81.76 1068.09 80.5 1063.54 79.18C1058.75 77.79 1054.15 76.32 1050.45 73.69C1049.89 73.3441 1049.41 72.8824 1049.04 72.3358C1048.67 71.7891 1048.42 71.1701 1048.31 70.52C1048.3 69.8328 1048.43 69.1505 1048.7 68.518C1048.97 67.8855 1049.37 67.317 1049.87 66.85C1051.44 65.3274 1053.33 64.1788 1055.4 63.49C1058.9 62.2537 1062.57 61.5624 1066.28 61.44C1078.73 60.71 1088.15 64.01 1095.14 71.56C1095.97 72.4134 1096.88 73.1868 1097.85 73.87C1098.65 74.4571 1099.59 74.8203 1100.58 74.9222C1101.57 75.0242 1102.57 74.8612 1103.47 74.45C1104.82 73.7712 1106.05 72.8722 1107.1 71.79L1107.72 71.18C1109.72 69.27 1111.93 67.09 1114.1 65.18C1115.03 64.3967 1115.78 63.4281 1116.31 62.3363C1116.85 61.2445 1117.14 60.0537 1117.19 58.84C1117.19 57.6107 1116.93 56.3948 1116.44 55.2691C1115.95 54.1434 1115.22 53.1324 1114.32 52.3C1109.27 47.2969 1103.29 43.3233 1096.72 40.6C1085.31 35.84 1072.88 34.41 1058.72 36.21C1048.41 37.52 1040.55 40.57 1033.97 45.79C1024.35 53.41 1020.19 63.29 1021.58 75.16C1022.49 82.9 1026.39 89.39 1033.17 94.46C1040.31 99.8 1048.38 102.54 1055.32 104.52C1059.56 105.73 1063.87 106.89 1068.11 108.03C1072.11 109.11 1076.7 110.34 1081.11 111.6C1085.84 112.96 1089.18 114.75 1091.62 117.23C1092.25 117.833 1092.76 118.559 1093.1 119.363C1093.45 120.168 1093.62 121.035 1093.62 121.91C1093.56 122.797 1093.32 123.661 1092.91 124.451C1092.5 125.24 1091.94 125.938 1091.25 126.5C1089.49 128.038 1087.42 129.169 1085.17 129.81C1076.27 132.53 1066.77 132.579 1057.84 129.95C1052.43 128.35 1047.15 125.2 1041.68 120.33C1036.87 116.04 1031.86 117.77 1029.04 120.56C1026.76 122.79 1024.35 124.99 1021.87 127.22C1020.98 127.961 1020.25 128.886 1019.74 129.932C1019.23 130.978 1018.96 132.12 1018.93 133.282C1018.9 134.444 1019.12 135.598 1019.58 136.667C1020.03 137.737 1020.71 138.696 1021.57 139.48C1024.36 142.305 1027.47 144.799 1030.84 146.91C1042.4 154.11 1055.63 157.63 1071.29 157.7H1072.29C1077.26 157.73 1082.22 157.261 1087.1 156.3C1098.1 154.07 1106.1 149.89 1112.18 143.14C1117.98 136.894 1121.06 128.604 1120.75 120.089C1120.44 111.573 1116.76 103.529 1110.53 97.72Z" fill="#A4A6A9"/>
<path d="M742.09 46.72C733.5 40.35 723.59 37.82 713.09 37.72C692.85 37.57 672.6 37.72 652.35 37.61C650.56 37.61 650.02 38.15 650.02 39.94C650.06 77.8534 650.06 115.763 650.02 153.67C650.02 155.62 650.7 156.04 652.5 156.02C660.27 155.94 668.04 155.93 675.81 156.02C677.81 156.02 678.34 155.43 678.32 153.48C678.32 152.85 678.32 152.21 678.32 151.58V122.48C678.385 121.625 678.385 120.765 678.32 119.91V115.88H678.53C688.83 115.88 699.127 115.88 709.42 115.88C713.168 115.902 716.912 115.638 720.62 115.09C729.06 113.8 736.88 110.94 743.48 105.39C753.24 97.19 757.25 86.52 756.53 73.97C755.86 62.71 751.21 53.48 742.09 46.72ZM727.3 81.6C725.54 87.4 720.99 89.67 715.47 90.49C713.578 90.7519 711.67 90.8789 709.76 90.87C699.34 90.87 688.92 90.87 678.49 90.87H678.43V62.67C689.697 62.67 700.967 62.67 712.24 62.67C715.179 62.6337 718.095 63.195 720.81 64.32C722.472 64.9662 723.949 66.014 725.107 67.3698C726.266 68.7257 727.071 70.3473 727.45 72.09C728.243 75.2174 728.191 78.4992 727.3 81.6Z" fill="#A4A6A9"/>
<path d="M637.93 39.99C637.93 38.19 637.39 37.63 635.59 37.66C629.05 37.7533 622.507 37.7533 615.96 37.66C615.294 37.6006 614.627 37.7484 614.049 38.0832C613.47 38.418 613.01 38.9233 612.73 39.53C612.42 40.03 612.12 40.53 611.82 41.04L570.66 105.71L530.98 41.06C530.6 40.43 530.22 39.8 529.85 39.17C529.611 38.6866 529.233 38.2857 528.764 38.0185C528.295 37.7512 527.758 37.6299 527.22 37.67C520.61 37.67 513.99 37.74 507.38 37.67C505.65 37.67 505.19 38.27 505.19 39.92C505.23 77.7667 505.23 115.613 505.19 153.46C505.19 155.3 505.83 155.77 507.57 155.75C515.41 155.68 523.25 155.75 531.09 155.75C534.09 155.75 534.09 155.75 534.09 152.84C534.09 134.02 534.45 93.84 534.45 93.84C534.45 93.84 560.45 139.19 570.45 155.65C571.61 157.57 571.69 157.56 572.89 155.57C580.95 142.2 608.83 93.81 608.83 93.81C608.83 93.81 609.17 134.33 609.11 153.22C609.11 155.13 609.62 155.84 611.64 155.82C619.64 155.72 627.617 155.72 635.57 155.82C637.42 155.82 638.02 155.29 638.02 153.39C637.913 115.57 637.883 77.77 637.93 39.99Z" fill="#A4A6A9"/>
<path d="M1201.44 37.4H1173.94L1122.88 155.53H1154.23L1164.53 131.62H1210.95L1221.07 155.52H1252.65L1201.44 37.4ZM1172.83 107.48C1174.57 103.48 1176.32 99.48 1178.09 95.48C1181.3 88.25 1184.59 80.83 1187.75 73.22C1190.41 79.64 1193.18 85.92 1195.83 91.86L1202.33 107.44L1172.83 107.48Z" fill="#A4A6A9"/>
<path d="M59.33 31.83H49.56C49.2618 31.83 49.02 32.0718 49.02 32.37V32.74C49.02 33.0382 49.2618 33.28 49.56 33.28H59.33C59.6283 33.28 59.87 33.0382 59.87 32.74V32.37C59.87 32.0718 59.6283 31.83 59.33 31.83Z" fill="#02804D"/>
<path d="M64.57 34.72H44.32C43.3204 34.72 42.51 35.5304 42.51 36.53V64.74C42.51 65.7396 43.3204 66.55 44.32 66.55H64.57C65.5696 66.55 66.38 65.7396 66.38 64.74V36.53C66.38 35.5304 65.5696 34.72 64.57 34.72Z" fill="#02804D"/>
<path d="M54.81 3.86158e-06C44.6747 -0.00387236 34.7527 2.91052 26.2295 8.39491C17.7063 13.8793 10.9424 21.7017 6.74611 30.9274C2.5498 40.1532 1.09855 50.3921 2.56576 60.4206C4.03298 70.4491 8.3566 79.8431 15.02 87.48C21.6012 80.0921 30.1247 74.7008 39.62 71.92V31.1C39.6159 30.9085 39.6506 30.7181 39.722 30.5403C39.7935 30.3625 39.9001 30.201 40.0356 30.0656C40.171 29.9301 40.3325 29.8235 40.5103 29.752C40.6881 29.6806 40.8784 29.6459 41.07 29.65H67.07C67.3564 29.6446 67.6411 29.697 67.9068 29.8041C68.1725 29.9112 68.4139 30.0709 68.6165 30.2735C68.8191 30.4761 68.9787 30.7174 69.0859 30.9832C69.193 31.2489 69.2454 31.5336 69.24 31.82V71.92C78.9311 74.7547 87.6069 80.3072 94.24 87.92C101.011 80.3153 105.438 70.9152 106.989 60.8521C108.54 50.7889 107.148 40.4921 102.981 31.2018C98.8139 21.9116 92.0497 14.0242 83.5031 8.49006C74.9564 2.9559 64.9919 0.010999 54.81 0.0100136V3.86158e-06Z" fill="#02804D"/>
<path d="M138.53 0.549983C125.772 0.531387 113.443 5.15172 103.84 13.55C111.748 20.5929 117.358 29.8499 119.94 40.12H122.88L126.76 32.89H144.85L147.74 39.4H156.33L160.81 43.87V68.33L156.44 72.7H117.74C114.616 80.4206 109.717 87.2965 103.44 92.77C109.828 98.4622 117.503 102.517 125.806 104.585C134.108 106.653 142.789 106.672 151.101 104.641C159.412 102.61 167.106 98.5892 173.519 92.9254C179.932 87.2615 184.872 80.1239 187.915 72.1271C190.958 64.1304 192.012 55.5139 190.986 47.0195C189.96 38.5251 186.885 30.4073 182.026 23.3648C177.167 16.3222 170.67 10.5661 163.093 6.59173C155.516 2.6174 147.086 0.543995 138.53 0.549983Z" fill="#017BB2"/>
<path d="M135.1 43.04C132.738 43.04 130.429 43.7405 128.465 45.0529C126.502 46.3654 124.971 48.2307 124.068 50.413C123.165 52.5954 122.929 54.9967 123.39 57.3131C123.852 59.6295 124.99 61.757 126.661 63.4264C128.332 65.0959 130.46 66.2322 132.777 66.6918C135.094 67.1514 137.495 66.9135 139.676 66.0083C141.858 65.103 143.722 63.5711 145.033 61.6062C146.343 59.6414 147.042 57.3319 147.04 54.97C147.04 53.4025 146.731 51.8504 146.131 50.4023C145.531 48.9542 144.651 47.6386 143.542 46.5307C142.433 45.4227 141.117 44.5442 139.669 43.9453C138.22 43.3463 136.668 43.0387 135.1 43.04ZM135.1 63.29C133.454 63.29 131.846 62.802 130.478 61.8878C129.109 60.9736 128.043 59.6742 127.413 58.1539C126.784 56.6337 126.619 54.9607 126.94 53.3468C127.261 51.7329 128.053 50.2504 129.217 49.0869C130.38 47.9233 131.863 47.1309 133.477 46.8099C135.091 46.4889 136.764 46.6536 138.284 47.2833C139.804 47.9131 141.104 48.9795 142.018 50.3477C142.932 51.7159 143.42 53.3244 143.42 54.97C143.417 57.1758 142.54 59.2904 140.98 60.8502C139.42 62.4099 137.306 63.2874 135.1 63.29Z" fill="#017BB2"/>
<path d="M75.6001 163.84H26.2401C26.2401 163.84 24.0701 163.11 24.0701 161.67C24.0701 160.23 28.8901 147.8 28.8901 147.8C28.8901 147.8 28.0501 120.43 28.4101 120.43L31.3001 117.54H73.3001L74.3001 118.54C77.3603 111.607 81.8718 105.411 87.5301 100.37C79.8734 93.6962 70.454 89.373 60.4016 87.9188C50.3493 86.4647 40.0908 87.9413 30.8568 92.1717C21.6227 96.4021 13.805 103.207 8.3415 111.769C2.878 120.331 0.000604692 130.288 0.0544531 140.445C0.108302 150.602 3.0911 160.527 8.64509 169.031C14.1991 177.535 22.0885 184.257 31.3669 188.389C40.6453 192.521 50.9188 193.889 60.9552 192.328C70.9915 190.767 80.3646 186.345 87.9501 179.59C82.8705 175.172 78.6791 169.827 75.6001 163.84Z" fill="#EFA309"/>
<path d="M71.81 125.48V121.88H32.75V145.03H70.07C69.9 143.31 69.81 141.56 69.81 139.8C69.8107 134.957 70.4838 130.138 71.81 125.48Z" fill="#EFA309"/>
<path d="M46.53 158.77H58.1V155.16C58.1 155.16 53.76 152.26 46.53 155.16V158.77Z" fill="#EFA309"/>
<path d="M177.42 104.88C171.447 111.74 163.804 116.942 155.23 119.98L155.72 120.43C157.94 122.692 159.677 125.381 160.827 128.334C161.977 131.287 162.516 134.443 162.41 137.61C162.23 139.96 162.41 157.51 162.41 157.51L157.89 163.84H145.59V142.84H155.72V132.01C155.72 132.01 154.66 125.35 148.89 121.79C141.398 123.423 133.642 123.423 126.15 121.79C123.76 123.58 121.58 126.53 120.27 131.33V142.91H131.12V163.91H118.83L113.76 158.48V138.48C113.76 138.48 112.76 126.71 120.7 120.18C112.04 117.234 104.291 112.093 98.2101 105.26C91.5312 112.917 87.2035 122.338 85.7462 132.394C84.2888 142.449 85.7637 152.712 89.9939 161.95C94.2241 171.188 101.03 179.009 109.595 184.475C118.16 189.941 128.12 192.82 138.28 192.766C148.44 192.713 158.369 189.728 166.876 184.172C175.382 178.615 182.105 170.722 186.237 161.439C190.369 152.157 191.735 141.88 190.171 131.84C188.607 121.801 184.18 112.426 177.42 104.84V104.88Z" fill="#D9291F"/>
</g>
</svg>
